<?xml version="1.0" encoding="UTF-8" standalone="no"?>
<!DOCTYPE svg PUBLIC "-//W3C//DTD SVG 1.1//EN"
 "http://www.w3.org/Graphics/SVG/1.1/DTD/svg11.dtd">
<!-- Generated by graphviz version 2.47.2 (20210527.0053)
 -->
<!-- Pages: 1 -->
<svg width="479pt" height="723pt"
 viewBox="0.00 0.00 479.49 723.43" xmlns="http://www.w3.org/2000/svg" xmlns:xlink="http://www.w3.org/1999/xlink">
<g id="graph0" class="graph" transform="scale(1 1) rotate(0) translate(4 719.43)">
<polygon fill="white" stroke="transparent" points="-4,4 -4,-719.43 475.49,-719.43 475.49,4 -4,4"/>
<!-- 0 -->
<g id="node1" class="node">
<title>0</title>
<ellipse fill="none" stroke="black" cx="357.78" cy="-518.21" rx="21.43" ry="21.43"/>
<text text-anchor="middle" x="357.78" y="-513.21" font-family="STXinwei" font-size="20.00">T</text>
</g>
<!-- 1 -->
<g id="node2" class="node">
<title>1</title>
<ellipse fill="none" stroke="black" cx="448.87" cy="-207.21" rx="22.76" ry="22.76"/>
<text text-anchor="middle" x="448.87" y="-202.21" font-family="STXinwei" font-size="20.00">H</text>
</g>
<!-- 2 -->
<g id="node3" class="node">
<title>2</title>
<ellipse fill="none" stroke="black" cx="263.16" cy="-694.21" rx="21.43" ry="21.43"/>
<text text-anchor="middle" x="263.16" y="-689.21" font-family="STXinwei" font-size="20.00">I</text>
</g>
<!-- 3 -->
<g id="node4" class="node">
<title>3</title>
<ellipse fill="none" stroke="black" cx="357.78" cy="-458.21" rx="21.43" ry="21.43"/>
<text text-anchor="middle" x="357.78" y="-453.21" font-family="STXinwei" font-size="20.00">S</text>
</g>
<!-- 4 -->
<g id="node5" class="node">
<title>4</title>
<ellipse fill="none" stroke="black" cx="263.16" cy="-575.21" rx="26.33" ry="26.33"/>
<text text-anchor="middle" x="263.16" y="-570.21" font-family="STXinwei" font-size="20.00">[ ]</text>
</g>
<!-- 5 -->
<g id="node6" class="node">
<title>5</title>
<ellipse fill="none" stroke="black" cx="448.87" cy="-145.21" rx="21.43" ry="21.43"/>
<text text-anchor="middle" x="448.87" y="-140.21" font-family="STXinwei" font-size="20.00">P</text>
</g>
<!-- 6 -->
<g id="node7" class="node">
<title>6</title>
<ellipse fill="none" stroke="black" cx="263.16" cy="-510.21" rx="21.43" ry="21.43"/>
<text text-anchor="middle" x="263.16" y="-505.21" font-family="STXinwei" font-size="20.00">R</text>
</g>
<!-- 7 -->
<g id="node8" class="node">
<title>7</title>
<ellipse fill="none" stroke="black" cx="357.78" cy="-395.21" rx="24.08" ry="24.08"/>
<text text-anchor="middle" x="357.78" y="-390.21" font-family="STXinwei" font-size="20.00">O</text>
</g>
<!-- 8 -->
<g id="node9" class="node">
<title>8</title>
<ellipse fill="none" stroke="black" cx="448.87" cy="-83.21" rx="22.76" ry="22.76"/>
<text text-anchor="middle" x="448.87" y="-78.21" font-family="STXinwei" font-size="20.00">G</text>
</g>
<!-- 9 -->
<g id="node10" class="node">
<title>9</title>
<ellipse fill="none" stroke="black" cx="357.78" cy="-332.21" rx="21.43" ry="21.43"/>
<text text-anchor="middle" x="357.78" y="-327.21" font-family="STXinwei" font-size="20.00">A</text>
</g>
<!-- 10 -->
<g id="node11" class="node">
<title>10</title>
<ellipse fill="none" stroke="black" cx="357.78" cy="-267.21" rx="25.41" ry="25.41"/>
<text text-anchor="middle" x="357.78" y="-262.21" font-family="STXinwei" font-size="20.00">M</text>
</g>
<!-- 11 -->
<g id="node12" class="node">
<title>11</title>
<ellipse fill="none" stroke="black" cx="357.78" cy="-202.21" rx="21.43" ry="21.43"/>
<text text-anchor="middle" x="357.78" y="-197.21" font-family="STXinwei" font-size="20.00">E</text>
</g>
<!-- 12 -->
<g id="node13" class="node">
<title>12</title>
<ellipse fill="none" stroke="black" cx="448.87" cy="-21.21" rx="21.43" ry="21.43"/>
<text text-anchor="middle" x="448.87" y="-16.21" font-family="STXinwei" font-size="20.00">Y</text>
</g>
<!-- 13 -->
<g id="node14" class="node">
<title>13</title>
<ellipse fill="none" stroke="black" cx="357.78" cy="-665.21" rx="21.43" ry="21.43"/>
<text text-anchor="middle" x="357.78" y="-660.21" font-family="STXinwei" font-size="20.00">F</text>
</g>
<!-- 14 -->
<g id="node15" class="node">
<title>14</title>
<ellipse fill="none" stroke="black" cx="357.78" cy="-605.21" rx="21.43" ry="21.43"/>
<text text-anchor="middle" x="357.78" y="-600.21" font-family="STXinwei" font-size="20.00">V</text>
</g>
<!-- 15 -->
<g id="node16" class="node">
<title>15</title>
<ellipse fill="none" stroke="black" cx="357.78" cy="-145.21" rx="18" ry="18"/>
</g>
<!-- 15&#45;&gt;1 -->
<g id="edge27" class="edge">
<title>15&#45;&gt;1</title>
<path fill="none" stroke="black" d="M373.09,-155.17C386.12,-164.24 405.69,-177.86 421.54,-188.89"/>
<polygon fill="black" stroke="black" points="419.69,-191.87 429.9,-194.71 423.69,-186.12 419.69,-191.87"/>
<text text-anchor="middle" x="404.74" y="-182.01" font-family="Times New Roman,serif" font-size="14.00">0</text>
</g>
<!-- 15&#45;&gt;5 -->
<g id="edge28" class="edge">
<title>15&#45;&gt;5</title>
<path fill="none" stroke="black" d="M375.96,-145.21C387.72,-145.21 403.65,-145.21 417.52,-145.21"/>
<polygon fill="black" stroke="black" points="417.62,-148.71 427.62,-145.21 417.62,-141.71 417.62,-148.71"/>
<text text-anchor="middle" x="404.74" y="-149.01" font-family="Times New Roman,serif" font-size="14.00">1</text>
</g>
<!-- 16 -->
<g id="node17" class="node">
<title>16</title>
<ellipse fill="none" stroke="black" cx="357.78" cy="-83.21" rx="18" ry="18"/>
</g>
<!-- 16&#45;&gt;8 -->
<g id="edge25" class="edge">
<title>16&#45;&gt;8</title>
<path fill="none" stroke="black" d="M375.96,-83.21C387.21,-83.21 402.26,-83.21 415.69,-83.21"/>
<polygon fill="black" stroke="black" points="416,-86.71 426,-83.21 416,-79.71 416,-86.71"/>
<text text-anchor="middle" x="404.74" y="-87.01" font-family="Times New Roman,serif" font-size="14.00">0</text>
</g>
<!-- 16&#45;&gt;12 -->
<g id="edge26" class="edge">
<title>16&#45;&gt;12</title>
<path fill="none" stroke="black" d="M373.09,-73.25C386.37,-64.01 406.44,-50.04 422.44,-38.91"/>
<polygon fill="black" stroke="black" points="424.64,-41.64 430.85,-33.06 420.64,-35.9 424.64,-41.64"/>
<text text-anchor="middle" x="404.74" y="-56.01" font-family="Times New Roman,serif" font-size="14.00">1</text>
</g>
<!-- 17 -->
<g id="node18" class="node">
<title>17</title>
<ellipse fill="none" stroke="black" cx="263.16" cy="-637.21" rx="18" ry="18"/>
</g>
<!-- 17&#45;&gt;13 -->
<g id="edge23" class="edge">
<title>17&#45;&gt;13</title>
<path fill="none" stroke="black" d="M280.72,-642.22C293.7,-646.14 312.08,-651.7 327.52,-656.37"/>
<polygon fill="black" stroke="black" points="326.57,-659.74 337.15,-659.28 328.59,-653.04 326.57,-659.74"/>
<text text-anchor="middle" x="310.83" y="-655.01" font-family="Times New Roman,serif" font-size="14.00">0</text>
</g>
<!-- 17&#45;&gt;14 -->
<g id="edge24" class="edge">
<title>17&#45;&gt;14</title>
<path fill="none" stroke="black" d="M280.3,-631.64C293.31,-627.14 311.94,-620.71 327.56,-615.31"/>
<polygon fill="black" stroke="black" points="328.99,-618.52 337.3,-611.94 326.71,-611.9 328.99,-618.52"/>
<text text-anchor="middle" x="310.83" y="-625.01" font-family="Times New Roman,serif" font-size="14.00">1</text>
</g>
<!-- 18 -->
<g id="node19" class="node">
<title>18</title>
<ellipse fill="none" stroke="black" cx="263.16" cy="-453.21" rx="18" ry="18"/>
</g>
<!-- 18&#45;&gt;0 -->
<g id="edge21" class="edge">
<title>18&#45;&gt;0</title>
<path fill="none" stroke="black" d="M278.23,-463.09C292.36,-473.01 314.45,-488.51 331.61,-500.55"/>
<polygon fill="black" stroke="black" points="329.87,-503.6 340.07,-506.48 333.89,-497.88 329.87,-503.6"/>
<text text-anchor="middle" x="310.83" y="-492.01" font-family="Times New Roman,serif" font-size="14.00">0</text>
</g>
<!-- 18&#45;&gt;3 -->
<g id="edge22" class="edge">
<title>18&#45;&gt;3</title>
<path fill="none" stroke="black" d="M281.15,-454.13C293.67,-454.81 311.06,-455.74 326,-456.55"/>
<polygon fill="black" stroke="black" points="326.17,-460.07 336.35,-457.11 326.55,-453.08 326.17,-460.07"/>
<text text-anchor="middle" x="310.83" y="-460.01" font-family="Times New Roman,serif" font-size="14.00">1</text>
</g>
<!-- 19 -->
<g id="node20" class="node">
<title>19</title>
<ellipse fill="none" stroke="black" cx="263.16" cy="-395.21" rx="18" ry="18"/>
</g>
<!-- 19&#45;&gt;7 -->
<g id="edge19" class="edge">
<title>19&#45;&gt;7</title>
<path fill="none" stroke="black" d="M281.58,-395.21C293.28,-395.21 309.06,-395.21 323.15,-395.21"/>
<polygon fill="black" stroke="black" points="323.49,-398.71 333.49,-395.21 323.49,-391.71 323.49,-398.71"/>
<text text-anchor="middle" x="310.83" y="-399.01" font-family="Times New Roman,serif" font-size="14.00">0</text>
</g>
<!-- 19&#45;&gt;9 -->
<g id="edge20" class="edge">
<title>19&#45;&gt;9</title>
<path fill="none" stroke="black" d="M278.63,-385.37C292.76,-375.76 314.54,-360.95 331.52,-349.39"/>
<polygon fill="black" stroke="black" points="333.6,-352.21 339.9,-343.7 329.66,-346.43 333.6,-352.21"/>
<text text-anchor="middle" x="310.83" y="-370.01" font-family="Times New Roman,serif" font-size="14.00">1</text>
</g>
<!-- 20 -->
<g id="node21" class="node">
<title>20</title>
<ellipse fill="none" stroke="black" cx="263.16" cy="-235.21" rx="18" ry="18"/>
</g>
<!-- 20&#45;&gt;10 -->
<g id="edge17" class="edge">
<title>20&#45;&gt;10</title>
<path fill="none" stroke="black" d="M280.3,-240.79C292.26,-244.92 308.97,-250.69 323.73,-255.79"/>
<polygon fill="black" stroke="black" points="322.95,-259.23 333.54,-259.18 325.24,-252.61 322.95,-259.23"/>
<text text-anchor="middle" x="310.83" y="-256.01" font-family="Times New Roman,serif" font-size="14.00">0</text>
</g>
<!-- 20&#45;&gt;11 -->
<g id="edge18" class="edge">
<title>20&#45;&gt;11</title>
<path fill="none" stroke="black" d="M280.3,-229.47C293.39,-224.8 312.19,-218.1 327.87,-212.51"/>
<polygon fill="black" stroke="black" points="329.39,-215.69 337.63,-209.04 327.04,-209.1 329.39,-215.69"/>
<text text-anchor="middle" x="310.83" y="-224.01" font-family="Times New Roman,serif" font-size="14.00">1</text>
</g>
<!-- 21 -->
<g id="node22" class="node">
<title>21</title>
<ellipse fill="none" stroke="black" cx="263.16" cy="-145.21" rx="18" ry="18"/>
</g>
<!-- 21&#45;&gt;15 -->
<g id="edge15" class="edge">
<title>21&#45;&gt;15</title>
<path fill="none" stroke="black" d="M281.58,-145.21C295.12,-145.21 314.15,-145.21 329.67,-145.21"/>
<polygon fill="black" stroke="black" points="329.75,-148.71 339.75,-145.21 329.75,-141.71 329.75,-148.71"/>
<text text-anchor="middle" x="310.83" y="-149.01" font-family="Times New Roman,serif" font-size="14.00">0</text>
</g>
<!-- 21&#45;&gt;16 -->
<g id="edge16" class="edge">
<title>21&#45;&gt;16</title>
<path fill="none" stroke="black" d="M278.63,-135.53C293.45,-125.61 316.7,-110.05 333.99,-98.47"/>
<polygon fill="black" stroke="black" points="336.05,-101.3 342.41,-92.83 332.15,-95.49 336.05,-101.3"/>
<text text-anchor="middle" x="310.83" y="-120.01" font-family="Times New Roman,serif" font-size="14.00">1</text>
</g>
<!-- 22 -->
<g id="node23" class="node">
<title>22</title>
<ellipse fill="none" stroke="black" cx="176" cy="-637.21" rx="18" ry="18"/>
</g>
<!-- 22&#45;&gt;2 -->
<g id="edge14" class="edge">
<title>22&#45;&gt;2</title>
<path fill="none" stroke="black" d="M191.45,-646.88C203.71,-655.09 221.6,-667.07 236.32,-676.92"/>
<polygon fill="black" stroke="black" points="234.74,-680.07 245,-682.73 238.64,-674.25 234.74,-680.07"/>
<text text-anchor="middle" x="215.5" y="-667.01" font-family="Times New Roman,serif" font-size="14.00">1</text>
</g>
<!-- 22&#45;&gt;17 -->
<g id="edge13" class="edge">
<title>22&#45;&gt;17</title>
<path fill="none" stroke="black" d="M194.23,-637.21C205.89,-637.21 221.54,-637.21 234.87,-637.21"/>
<polygon fill="black" stroke="black" points="234.95,-640.71 244.95,-637.21 234.95,-633.71 234.95,-640.71"/>
<text text-anchor="middle" x="215.5" y="-641.01" font-family="Times New Roman,serif" font-size="14.00">0</text>
</g>
<!-- 23 -->
<g id="node24" class="node">
<title>23</title>
<ellipse fill="none" stroke="black" cx="176" cy="-532.21" rx="18" ry="18"/>
</g>
<!-- 23&#45;&gt;4 -->
<g id="edge12" class="edge">
<title>23&#45;&gt;4</title>
<path fill="none" stroke="black" d="M192.62,-540.1C203.21,-545.45 217.57,-552.7 230.5,-559.23"/>
<polygon fill="black" stroke="black" points="229.08,-562.43 239.58,-563.81 232.23,-556.18 229.08,-562.43"/>
<text text-anchor="middle" x="215.5" y="-556.01" font-family="Times New Roman,serif" font-size="14.00">1</text>
</g>
<!-- 23&#45;&gt;6 -->
<g id="edge11" class="edge">
<title>23&#45;&gt;6</title>
<path fill="none" stroke="black" d="M193.83,-527.87C204.84,-525.02 219.54,-521.22 232.48,-517.88"/>
<polygon fill="black" stroke="black" points="233.58,-521.21 242.38,-515.32 231.83,-514.44 233.58,-521.21"/>
<text text-anchor="middle" x="215.5" y="-527.01" font-family="Times New Roman,serif" font-size="14.00">0</text>
</g>
<!-- 24 -->
<g id="node25" class="node">
<title>24</title>
<ellipse fill="none" stroke="black" cx="176" cy="-424.21" rx="18" ry="18"/>
</g>
<!-- 24&#45;&gt;18 -->
<g id="edge9" class="edge">
<title>24&#45;&gt;18</title>
<path fill="none" stroke="black" d="M193.42,-429.8C205.56,-433.94 222.32,-439.65 236.25,-444.39"/>
<polygon fill="black" stroke="black" points="235.2,-447.73 245.79,-447.64 237.46,-441.1 235.2,-447.73"/>
<text text-anchor="middle" x="215.5" y="-442.01" font-family="Times New Roman,serif" font-size="14.00">0</text>
</g>
<!-- 24&#45;&gt;19 -->
<g id="edge10" class="edge">
<title>24&#45;&gt;19</title>
<path fill="none" stroke="black" d="M193.42,-418.62C205.56,-414.49 222.32,-408.78 236.25,-404.04"/>
<polygon fill="black" stroke="black" points="237.46,-407.32 245.79,-400.79 235.2,-400.7 237.46,-407.32"/>
<text text-anchor="middle" x="215.5" y="-416.01" font-family="Times New Roman,serif" font-size="14.00">1</text>
</g>
<!-- 25 -->
<g id="node26" class="node">
<title>25</title>
<ellipse fill="none" stroke="black" cx="176" cy="-235.21" rx="18" ry="18"/>
</g>
<!-- 25&#45;&gt;20 -->
<g id="edge7" class="edge">
<title>25&#45;&gt;20</title>
<path fill="none" stroke="black" d="M194.23,-235.21C205.89,-235.21 221.54,-235.21 234.87,-235.21"/>
<polygon fill="black" stroke="black" points="234.95,-238.71 244.95,-235.21 234.95,-231.71 234.95,-238.71"/>
<text text-anchor="middle" x="215.5" y="-239.01" font-family="Times New Roman,serif" font-size="14.00">0</text>
</g>
<!-- 25&#45;&gt;21 -->
<g id="edge8" class="edge">
<title>25&#45;&gt;21</title>
<path fill="none" stroke="black" d="M189.2,-222.32C203.32,-207.4 226.74,-182.65 243.23,-165.22"/>
<polygon fill="black" stroke="black" points="245.93,-167.46 250.26,-157.79 240.84,-162.65 245.93,-167.46"/>
<text text-anchor="middle" x="215.5" y="-200.01" font-family="Times New Roman,serif" font-size="14.00">1</text>
</g>
<!-- 26 -->
<g id="node27" class="node">
<title>26</title>
<ellipse fill="none" stroke="black" cx="97" cy="-532.21" rx="18" ry="18"/>
</g>
<!-- 26&#45;&gt;22 -->
<g id="edge5" class="edge">
<title>26&#45;&gt;22</title>
<path fill="none" stroke="black" d="M108.38,-546.37C121.24,-563.91 143.3,-593.99 158.49,-614.7"/>
<polygon fill="black" stroke="black" points="155.8,-616.95 164.53,-622.94 161.44,-612.81 155.8,-616.95"/>
<text text-anchor="middle" x="136.5" y="-591.01" font-family="Times New Roman,serif" font-size="14.00">0</text>
</g>
<!-- 26&#45;&gt;23 -->
<g id="edge6" class="edge">
<title>26&#45;&gt;23</title>
<path fill="none" stroke="black" d="M115.09,-532.21C124.66,-532.21 136.82,-532.21 147.68,-532.21"/>
<polygon fill="black" stroke="black" points="147.96,-535.71 157.96,-532.21 147.96,-528.71 147.96,-535.71"/>
<text text-anchor="middle" x="136.5" y="-536.01" font-family="Times New Roman,serif" font-size="14.00">1</text>
</g>
<!-- 27 -->
<g id="node28" class="node">
<title>27</title>
<ellipse fill="none" stroke="black" cx="97" cy="-424.21" rx="18" ry="18"/>
</g>
<!-- 27&#45;&gt;24 -->
<g id="edge3" class="edge">
<title>27&#45;&gt;24</title>
<path fill="none" stroke="black" d="M115.09,-424.21C124.66,-424.21 136.82,-424.21 147.68,-424.21"/>
<polygon fill="black" stroke="black" points="147.96,-427.71 157.96,-424.21 147.96,-420.71 147.96,-427.71"/>
<text text-anchor="middle" x="136.5" y="-428.01" font-family="Times New Roman,serif" font-size="14.00">0</text>
</g>
<!-- 27&#45;&gt;25 -->
<g id="edge4" class="edge">
<title>27&#45;&gt;25</title>
<path fill="none" stroke="black" d="M104.7,-407.77C118.09,-374.89 148.28,-300.8 164.39,-261.24"/>
<polygon fill="black" stroke="black" points="167.73,-262.33 168.26,-251.75 161.25,-259.69 167.73,-262.33"/>
<text text-anchor="middle" x="136.5" y="-340.01" font-family="Times New Roman,serif" font-size="14.00">1</text>
</g>
<!-- 28 -->
<g id="node29" class="node">
<title>28</title>
<ellipse fill="none" stroke="black" cx="18" cy="-452.21" rx="18" ry="18"/>
</g>
<!-- 28&#45;&gt;26 -->
<g id="edge1" class="edge">
<title>28&#45;&gt;26</title>
<path fill="none" stroke="black" d="M31.03,-464.71C43.28,-477.44 62.45,-497.36 76.8,-512.26"/>
<polygon fill="black" stroke="black" points="74.34,-514.76 83.8,-519.54 79.39,-509.9 74.34,-514.76"/>
<text text-anchor="middle" x="57.5" y="-499.01" font-family="Times New Roman,serif" font-size="14.00">0</text>
</g>
<!-- 28&#45;&gt;27 -->
<g id="edge2" class="edge">
<title>28&#45;&gt;27</title>
<path fill="none" stroke="black" d="M35.33,-446.28C45.5,-442.58 58.81,-437.74 70.37,-433.53"/>
<polygon fill="black" stroke="black" points="71.76,-436.75 79.96,-430.05 69.36,-430.17 71.76,-436.75"/>
<text text-anchor="middle" x="57.5" y="-443.01" font-family="Times New Roman,serif" font-size="14.00">1</text>
</g>
</g>
</svg>
