<?xml version="1.0" encoding="UTF-8" standalone="no"?>
<!DOCTYPE svg PUBLIC "-//W3C//DTD SVG 1.1//EN"
 "http://www.w3.org/Graphics/SVG/1.1/DTD/svg11.dtd">
<!-- Generated by graphviz version 2.47.2 (20210527.0053)
 -->
<!-- Pages: 1 -->
<svg width="648pt" height="2115pt"
 viewBox="0.00 0.00 648.16 2115.43" xmlns="http://www.w3.org/2000/svg" xmlns:xlink="http://www.w3.org/1999/xlink">
<g id="graph0" class="graph" transform="scale(1 1) rotate(0) translate(4 2111.43)">
<polygon fill="white" stroke="transparent" points="-4,4 -4,-2111.43 644.16,-2111.43 644.16,4 -4,4"/>
<!-- 0 -->
<g id="node1" class="node">
<title>0</title>
<ellipse fill="none" stroke="black" cx="614" cy="-81.21" rx="21.43" ry="21.43"/>
<text text-anchor="middle" x="614" y="-76.21" font-family="STXinwei" font-size="20.00">I</text>
</g>
<!-- 1 -->
<g id="node2" class="node">
<title>1</title>
<ellipse fill="none" stroke="black" cx="263.16" cy="-717.21" rx="26.33" ry="26.33"/>
<text text-anchor="middle" x="263.16" y="-712.21" font-family="STXinwei" font-size="20.00">[ ]</text>
</g>
<!-- 2 -->
<g id="node3" class="node">
<title>2</title>
<ellipse fill="none" stroke="black" cx="614" cy="-21.21" rx="21.43" ry="21.43"/>
<text text-anchor="middle" x="614" y="-16.21" font-family="STXinwei" font-size="20.00">t</text>
</g>
<!-- 3 -->
<g id="node4" class="node">
<title>3</title>
<ellipse fill="none" stroke="black" cx="435.37" cy="-1114.21" rx="21.43" ry="21.43"/>
<text text-anchor="middle" x="435.37" y="-1109.21" font-family="STXinwei" font-size="20.00">h</text>
</g>
<!-- 4 -->
<g id="node5" class="node">
<title>4</title>
<ellipse fill="none" stroke="black" cx="435.37" cy="-1054.21" rx="21.43" ry="21.43"/>
<text text-anchor="middle" x="435.37" y="-1049.21" font-family="STXinwei" font-size="20.00">i</text>
</g>
<!-- 5 -->
<g id="node6" class="node">
<title>5</title>
<ellipse fill="none" stroke="black" cx="435.37" cy="-994.21" rx="21.43" ry="21.43"/>
<text text-anchor="middle" x="435.37" y="-989.21" font-family="STXinwei" font-size="20.00">n</text>
</g>
<!-- 6 -->
<g id="node7" class="node">
<title>6</title>
<ellipse fill="none" stroke="black" cx="435.37" cy="-934.21" rx="21.43" ry="21.43"/>
<text text-anchor="middle" x="435.37" y="-929.21" font-family="STXinwei" font-size="20.00">k</text>
</g>
<!-- 7 -->
<g id="node8" class="node">
<title>7</title>
<ellipse fill="none" stroke="black" cx="435.37" cy="-871.21" rx="24.08" ry="24.08"/>
<text text-anchor="middle" x="435.37" y="-866.21" font-family="STXinwei" font-size="20.00">Q</text>
</g>
<!-- 8 -->
<g id="node9" class="node">
<title>8</title>
<ellipse fill="none" stroke="black" cx="435.37" cy="-808.21" rx="21.43" ry="21.43"/>
<text text-anchor="middle" x="435.37" y="-803.21" font-family="STXinwei" font-size="20.00">g</text>
</g>
<!-- 9 -->
<g id="node10" class="node">
<title>9</title>
<ellipse fill="none" stroke="black" cx="435.37" cy="-748.21" rx="21.43" ry="21.43"/>
<text text-anchor="middle" x="435.37" y="-743.21" font-family="STXinwei" font-size="20.00">e</text>
</g>
<!-- 10 -->
<g id="node11" class="node">
<title>10</title>
<ellipse fill="none" stroke="black" cx="435.37" cy="-688.21" rx="21.43" ry="21.43"/>
<text text-anchor="middle" x="435.37" y="-683.21" font-family="STXinwei" font-size="20.00">f</text>
</g>
<!-- 11 -->
<g id="node12" class="node">
<title>11</title>
<ellipse fill="none" stroke="black" cx="435.37" cy="-2086.21" rx="21.43" ry="21.43"/>
<text text-anchor="middle" x="435.37" y="-2081.21" font-family="STXinwei" font-size="20.00">a</text>
</g>
<!-- 12 -->
<g id="node13" class="node">
<title>12</title>
<ellipse fill="none" stroke="black" cx="435.37" cy="-2026.21" rx="21.43" ry="21.43"/>
<text text-anchor="middle" x="435.37" y="-2021.21" font-family="STXinwei" font-size="20.00">S</text>
</g>
<!-- 13 -->
<g id="node14" class="node">
<title>13</title>
<ellipse fill="none" stroke="black" cx="435.37" cy="-1966.21" rx="21.43" ry="21.43"/>
<text text-anchor="middle" x="435.37" y="-1961.21" font-family="STXinwei" font-size="20.00">r</text>
</g>
<!-- 14 -->
<g id="node15" class="node">
<title>14</title>
<ellipse fill="none" stroke="black" cx="435.37" cy="-1906.21" rx="21.43" ry="21.43"/>
<text text-anchor="middle" x="435.37" y="-1901.21" font-family="STXinwei" font-size="20.00">d</text>
</g>
<!-- 15 -->
<g id="node16" class="node">
<title>15</title>
<ellipse fill="none" stroke="black" cx="435.37" cy="-1846.21" rx="21.43" ry="21.43"/>
<text text-anchor="middle" x="435.37" y="-1841.21" font-family="STXinwei" font-size="20.00">L</text>
</g>
<!-- 16 -->
<g id="node17" class="node">
<title>16</title>
<ellipse fill="none" stroke="black" cx="435.37" cy="-1786.21" rx="21.43" ry="21.43"/>
<text text-anchor="middle" x="435.37" y="-1781.21" font-family="STXinwei" font-size="20.00">y</text>
</g>
<!-- 17 -->
<g id="node18" class="node">
<title>17</title>
<ellipse fill="none" stroke="black" cx="435.37" cy="-1726.21" rx="21.43" ry="21.43"/>
<text text-anchor="middle" x="435.37" y="-1721.21" font-family="STXinwei" font-size="20.00">T</text>
</g>
<!-- 18 -->
<g id="node19" class="node">
<title>18</title>
<ellipse fill="none" stroke="black" cx="435.37" cy="-1663.21" rx="24.08" ry="24.08"/>
<text text-anchor="middle" x="435.37" y="-1658.21" font-family="STXinwei" font-size="20.00">m</text>
</g>
<!-- 19 -->
<g id="node20" class="node">
<title>19</title>
<ellipse fill="none" stroke="black" cx="435.37" cy="-1600.21" rx="21.43" ry="21.43"/>
<text text-anchor="middle" x="435.37" y="-1595.21" font-family="STXinwei" font-size="20.00">p</text>
</g>
<!-- 20 -->
<g id="node21" class="node">
<title>20</title>
<ellipse fill="none" stroke="black" cx="435.37" cy="-1540.21" rx="21.43" ry="21.43"/>
<text text-anchor="middle" x="435.37" y="-1535.21" font-family="STXinwei" font-size="20.00">l</text>
</g>
<!-- 21 -->
<g id="node22" class="node">
<title>21</title>
<ellipse fill="none" stroke="black" cx="435.37" cy="-1480.21" rx="21.43" ry="21.43"/>
<text text-anchor="middle" x="435.37" y="-1475.21" font-family="STXinwei" font-size="20.00">c</text>
</g>
<!-- 22 -->
<g id="node23" class="node">
<title>22</title>
<ellipse fill="none" stroke="black" cx="435.37" cy="-1420.21" rx="21.43" ry="21.43"/>
<text text-anchor="middle" x="435.37" y="-1415.21" font-family="STXinwei" font-size="20.00">o</text>
</g>
<!-- 23 -->
<g id="node24" class="node">
<title>23</title>
<ellipse fill="none" stroke="black" cx="435.37" cy="-1360.21" rx="21.43" ry="21.43"/>
<text text-anchor="middle" x="435.37" y="-1355.21" font-family="STXinwei" font-size="20.00">s</text>
</g>
<!-- 24 -->
<g id="node25" class="node">
<title>24</title>
<ellipse fill="none" stroke="black" cx="435.37" cy="-1297.21" rx="23.17" ry="23.17"/>
<text text-anchor="middle" x="435.37" y="-1292.21" font-family="STXinwei" font-size="20.00">w</text>
</g>
<!-- 25 -->
<g id="node26" class="node">
<title>25</title>
<ellipse fill="none" stroke="black" cx="614" cy="-579.21" rx="21.43" ry="21.43"/>
<text text-anchor="middle" x="614" y="-574.21" font-family="STXinwei" font-size="20.00">j</text>
</g>
<!-- 26 -->
<g id="node27" class="node">
<title>26</title>
<ellipse fill="none" stroke="black" cx="435.37" cy="-1234.21" rx="21.43" ry="21.43"/>
<text text-anchor="middle" x="435.37" y="-1229.21" font-family="STXinwei" font-size="20.00">.</text>
</g>
<!-- 27 -->
<g id="node28" class="node">
<title>27</title>
<ellipse fill="none" stroke="black" cx="435.37" cy="-1174.21" rx="21.43" ry="21.43"/>
<text text-anchor="middle" x="435.37" y="-1169.21" font-family="STXinwei" font-size="20.00">u</text>
</g>
<!-- 28 -->
<g id="node29" class="node">
<title>28</title>
<ellipse fill="none" stroke="black" cx="523.62" cy="-694.21" rx="21.43" ry="21.43"/>
<text text-anchor="middle" x="523.62" y="-689.21" font-family="STXinwei" font-size="20.00">A</text>
</g>
<!-- 29 -->
<g id="node30" class="node">
<title>29</title>
<ellipse fill="none" stroke="black" cx="614" cy="-517.21" rx="22.76" ry="22.76"/>
<text text-anchor="middle" x="614" y="-512.21" font-family="STXinwei" font-size="20.00">D</text>
</g>
<!-- 30 -->
<g id="node31" class="node">
<title>30</title>
<ellipse fill="none" stroke="black" cx="614" cy="-450.21" rx="26.33" ry="26.33"/>
<text text-anchor="middle" x="614" y="-445.21" font-family="STXinwei" font-size="20.00">W</text>
</g>
<!-- 31 -->
<g id="node32" class="node">
<title>31</title>
<ellipse fill="none" stroke="black" cx="614" cy="-385.21" rx="21.43" ry="21.43"/>
<text text-anchor="middle" x="614" y="-380.21" font-family="STXinwei" font-size="20.00">q</text>
</g>
<!-- 32 -->
<g id="node33" class="node">
<title>32</title>
<ellipse fill="none" stroke="black" cx="523.62" cy="-634.21" rx="21.43" ry="21.43"/>
<text text-anchor="middle" x="523.62" y="-629.21" font-family="STXinwei" font-size="20.00">b</text>
</g>
<!-- 33 -->
<g id="node34" class="node">
<title>33</title>
<ellipse fill="none" stroke="black" cx="523.62" cy="-574.21" rx="21.43" ry="21.43"/>
<text text-anchor="middle" x="523.62" y="-569.21" font-family="STXinwei" font-size="20.00">,</text>
</g>
<!-- 34 -->
<g id="node35" class="node">
<title>34</title>
<ellipse fill="none" stroke="black" cx="614" cy="-323.21" rx="22.76" ry="22.76"/>
<text text-anchor="middle" x="614" y="-318.21" font-family="STXinwei" font-size="20.00">H</text>
</g>
<!-- 35 -->
<g id="node36" class="node">
<title>35</title>
<ellipse fill="none" stroke="black" cx="614" cy="-261.21" rx="21.43" ry="21.43"/>
<text text-anchor="middle" x="614" y="-256.21" font-family="STXinwei" font-size="20.00">z</text>
</g>
<!-- 36 -->
<g id="node37" class="node">
<title>36</title>
<ellipse fill="none" stroke="black" cx="614" cy="-201.21" rx="21.43" ry="21.43"/>
<text text-anchor="middle" x="614" y="-196.21" font-family="STXinwei" font-size="20.00">v</text>
</g>
<!-- 37 -->
<g id="node38" class="node">
<title>37</title>
<ellipse fill="none" stroke="black" cx="614" cy="-141.21" rx="21.43" ry="21.43"/>
<text text-anchor="middle" x="614" y="-136.21" font-family="STXinwei" font-size="20.00">x</text>
</g>
<!-- 38 -->
<g id="node39" class="node">
<title>38</title>
<ellipse fill="none" stroke="black" cx="523.62" cy="-517.21" rx="18" ry="18"/>
</g>
<!-- 38&#45;&gt;25 -->
<g id="edge73" class="edge">
<title>38&#45;&gt;25</title>
<path fill="none" stroke="black" d="M538.82,-527.17C552,-536.42 571.9,-550.38 587.78,-561.52"/>
<polygon fill="black" stroke="black" points="585.92,-564.49 596.12,-567.37 589.94,-558.76 585.92,-564.49"/>
<text text-anchor="middle" x="566.34" y="-552.01" font-family="Times New Roman,serif" font-size="14.00">0</text>
</g>
<!-- 38&#45;&gt;29 -->
<g id="edge74" class="edge">
<title>38&#45;&gt;29</title>
<path fill="none" stroke="black" d="M541.66,-517.21C552.82,-517.21 567.76,-517.21 581.08,-517.21"/>
<polygon fill="black" stroke="black" points="581.31,-520.71 591.31,-517.21 581.31,-513.71 581.31,-520.71"/>
<text text-anchor="middle" x="566.34" y="-521.01" font-family="Times New Roman,serif" font-size="14.00">1</text>
</g>
<!-- 39 -->
<g id="node40" class="node">
<title>39</title>
<ellipse fill="none" stroke="black" cx="523.62" cy="-385.21" rx="18" ry="18"/>
</g>
<!-- 39&#45;&gt;30 -->
<g id="edge71" class="edge">
<title>39&#45;&gt;30</title>
<path fill="none" stroke="black" d="M538.82,-395.66C551.09,-404.68 569.2,-418 584.45,-429.22"/>
<polygon fill="black" stroke="black" points="582.45,-432.09 592.58,-435.19 586.59,-426.45 582.45,-432.09"/>
<text text-anchor="middle" x="566.34" y="-422.01" font-family="Times New Roman,serif" font-size="14.00">0</text>
</g>
<!-- 39&#45;&gt;31 -->
<g id="edge72" class="edge">
<title>39&#45;&gt;31</title>
<path fill="none" stroke="black" d="M541.66,-385.21C553.14,-385.21 568.61,-385.21 582.21,-385.21"/>
<polygon fill="black" stroke="black" points="582.6,-388.71 592.6,-385.21 582.6,-381.71 582.6,-388.71"/>
<text text-anchor="middle" x="566.34" y="-389.01" font-family="Times New Roman,serif" font-size="14.00">1</text>
</g>
<!-- 40 -->
<g id="node41" class="node">
<title>40</title>
<ellipse fill="none" stroke="black" cx="523.62" cy="-323.21" rx="18" ry="18"/>
</g>
<!-- 40&#45;&gt;34 -->
<g id="edge69" class="edge">
<title>40&#45;&gt;34</title>
<path fill="none" stroke="black" d="M541.66,-323.21C552.82,-323.21 567.76,-323.21 581.08,-323.21"/>
<polygon fill="black" stroke="black" points="581.31,-326.71 591.31,-323.21 581.31,-319.71 581.31,-326.71"/>
<text text-anchor="middle" x="566.34" y="-327.01" font-family="Times New Roman,serif" font-size="14.00">0</text>
</g>
<!-- 40&#45;&gt;35 -->
<g id="edge70" class="edge">
<title>40&#45;&gt;35</title>
<path fill="none" stroke="black" d="M538.82,-313.25C552,-304.01 571.9,-290.04 587.78,-278.91"/>
<polygon fill="black" stroke="black" points="589.94,-281.67 596.12,-273.06 585.92,-275.94 589.94,-281.67"/>
<text text-anchor="middle" x="566.34" y="-300.01" font-family="Times New Roman,serif" font-size="14.00">1</text>
</g>
<!-- 41 -->
<g id="node42" class="node">
<title>41</title>
<ellipse fill="none" stroke="black" cx="523.62" cy="-171.21" rx="18" ry="18"/>
</g>
<!-- 41&#45;&gt;36 -->
<g id="edge67" class="edge">
<title>41&#45;&gt;36</title>
<path fill="none" stroke="black" d="M540.83,-176.72C552.78,-180.77 569.37,-186.4 583.63,-191.24"/>
<polygon fill="black" stroke="black" points="582.9,-194.69 593.5,-194.59 585.15,-188.06 582.9,-194.69"/>
<text text-anchor="middle" x="566.34" y="-190.01" font-family="Times New Roman,serif" font-size="14.00">0</text>
</g>
<!-- 41&#45;&gt;37 -->
<g id="edge68" class="edge">
<title>41&#45;&gt;37</title>
<path fill="none" stroke="black" d="M540.83,-165.71C552.78,-161.65 569.37,-156.02 583.63,-151.18"/>
<polygon fill="black" stroke="black" points="585.15,-154.36 593.5,-147.83 582.9,-147.73 585.15,-154.36"/>
<text text-anchor="middle" x="566.34" y="-162.01" font-family="Times New Roman,serif" font-size="14.00">1</text>
</g>
<!-- 42 -->
<g id="node43" class="node">
<title>42</title>
<ellipse fill="none" stroke="black" cx="523.62" cy="-81.21" rx="18" ry="18"/>
</g>
<!-- 42&#45;&gt;0 -->
<g id="edge65" class="edge">
<title>42&#45;&gt;0</title>
<path fill="none" stroke="black" d="M541.66,-81.21C553.14,-81.21 568.61,-81.21 582.21,-81.21"/>
<polygon fill="black" stroke="black" points="582.6,-84.71 592.6,-81.21 582.6,-77.71 582.6,-84.71"/>
<text text-anchor="middle" x="566.34" y="-85.01" font-family="Times New Roman,serif" font-size="14.00">0</text>
</g>
<!-- 42&#45;&gt;2 -->
<g id="edge66" class="edge">
<title>42&#45;&gt;2</title>
<path fill="none" stroke="black" d="M539.22,-71.31C552.25,-62.46 571.64,-49.29 587.27,-38.68"/>
<polygon fill="black" stroke="black" points="589.65,-41.29 595.96,-32.78 585.72,-35.5 589.65,-41.29"/>
<text text-anchor="middle" x="566.34" y="-59.01" font-family="Times New Roman,serif" font-size="14.00">1</text>
</g>
<!-- 43 -->
<g id="node44" class="node">
<title>43</title>
<ellipse fill="none" stroke="black" cx="350.33" cy="-1054.21" rx="18" ry="18"/>
</g>
<!-- 43&#45;&gt;3 -->
<g id="edge63" class="edge">
<title>43&#45;&gt;3</title>
<path fill="none" stroke="black" d="M365.41,-1064.39C377.37,-1073.03 394.82,-1085.64 409.17,-1096.01"/>
<polygon fill="black" stroke="black" points="407.48,-1099.1 417.63,-1102.12 411.58,-1093.43 407.48,-1099.1"/>
<text text-anchor="middle" x="389.83" y="-1088.01" font-family="Times New Roman,serif" font-size="14.00">0</text>
</g>
<!-- 43&#45;&gt;4 -->
<g id="edge64" class="edge">
<title>43&#45;&gt;4</title>
<path fill="none" stroke="black" d="M368.53,-1054.21C378.75,-1054.21 391.99,-1054.21 403.92,-1054.21"/>
<polygon fill="black" stroke="black" points="403.96,-1057.71 413.96,-1054.21 403.96,-1050.71 403.96,-1057.71"/>
<text text-anchor="middle" x="389.83" y="-1058.01" font-family="Times New Roman,serif" font-size="14.00">1</text>
</g>
<!-- 44 -->
<g id="node45" class="node">
<title>44</title>
<ellipse fill="none" stroke="black" cx="350.33" cy="-974.21" rx="18" ry="18"/>
</g>
<!-- 44&#45;&gt;5 -->
<g id="edge61" class="edge">
<title>44&#45;&gt;5</title>
<path fill="none" stroke="black" d="M368.13,-978.26C378.65,-980.79 392.49,-984.13 404.8,-987.09"/>
<polygon fill="black" stroke="black" points="404.13,-990.53 414.67,-989.47 405.77,-983.72 404.13,-990.53"/>
<text text-anchor="middle" x="389.83" y="-988.01" font-family="Times New Roman,serif" font-size="14.00">0</text>
</g>
<!-- 44&#45;&gt;6 -->
<g id="edge62" class="edge">
<title>44&#45;&gt;6</title>
<path fill="none" stroke="black" d="M366.95,-966.69C378.14,-961.3 393.51,-953.9 406.75,-947.52"/>
<polygon fill="black" stroke="black" points="408.43,-950.59 415.92,-943.1 405.39,-944.29 408.43,-950.59"/>
<text text-anchor="middle" x="389.83" y="-961.01" font-family="Times New Roman,serif" font-size="14.00">1</text>
</g>
<!-- 45 -->
<g id="node46" class="node">
<title>45</title>
<ellipse fill="none" stroke="black" cx="350.33" cy="-850.21" rx="18" ry="18"/>
</g>
<!-- 45&#45;&gt;7 -->
<g id="edge59" class="edge">
<title>45&#45;&gt;7</title>
<path fill="none" stroke="black" d="M368.13,-854.46C377.88,-856.93 390.49,-860.12 402.09,-863.05"/>
<polygon fill="black" stroke="black" points="401.37,-866.48 411.92,-865.54 403.08,-859.69 401.37,-866.48"/>
<text text-anchor="middle" x="389.83" y="-865.01" font-family="Times New Roman,serif" font-size="14.00">0</text>
</g>
<!-- 45&#45;&gt;8 -->
<g id="edge60" class="edge">
<title>45&#45;&gt;8</title>
<path fill="none" stroke="black" d="M366.95,-842.31C378.21,-836.62 393.71,-828.77 407.01,-822.05"/>
<polygon fill="black" stroke="black" points="408.87,-825.03 416.22,-817.39 405.71,-818.78 408.87,-825.03"/>
<text text-anchor="middle" x="389.83" y="-836.01" font-family="Times New Roman,serif" font-size="14.00">1</text>
</g>
<!-- 46 -->
<g id="node47" class="node">
<title>46</title>
<ellipse fill="none" stroke="black" cx="350.33" cy="-748.21" rx="18" ry="18"/>
</g>
<!-- 46&#45;&gt;9 -->
<g id="edge57" class="edge">
<title>46&#45;&gt;9</title>
<path fill="none" stroke="black" d="M368.53,-748.21C378.75,-748.21 391.99,-748.21 403.92,-748.21"/>
<polygon fill="black" stroke="black" points="403.96,-751.71 413.96,-748.21 403.96,-744.71 403.96,-751.71"/>
<text text-anchor="middle" x="389.83" y="-752.01" font-family="Times New Roman,serif" font-size="14.00">0</text>
</g>
<!-- 46&#45;&gt;10 -->
<g id="edge58" class="edge">
<title>46&#45;&gt;10</title>
<path fill="none" stroke="black" d="M365.41,-738.04C377.37,-729.4 394.82,-716.79 409.17,-706.42"/>
<polygon fill="black" stroke="black" points="411.58,-709 417.63,-700.31 407.48,-703.33 411.58,-709"/>
<text text-anchor="middle" x="389.83" y="-726.01" font-family="Times New Roman,serif" font-size="14.00">1</text>
</g>
<!-- 47 -->
<g id="node48" class="node">
<title>47</title>
<ellipse fill="none" stroke="black" cx="350.33" cy="-2026.21" rx="18" ry="18"/>
</g>
<!-- 47&#45;&gt;11 -->
<g id="edge55" class="edge">
<title>47&#45;&gt;11</title>
<path fill="none" stroke="black" d="M365.41,-2036.39C377.37,-2045.03 394.82,-2057.64 409.17,-2068.01"/>
<polygon fill="black" stroke="black" points="407.48,-2071.1 417.63,-2074.12 411.58,-2065.43 407.48,-2071.1"/>
<text text-anchor="middle" x="389.83" y="-2060.01" font-family="Times New Roman,serif" font-size="14.00">0</text>
</g>
<!-- 47&#45;&gt;12 -->
<g id="edge56" class="edge">
<title>47&#45;&gt;12</title>
<path fill="none" stroke="black" d="M368.53,-2026.21C378.75,-2026.21 391.99,-2026.21 403.92,-2026.21"/>
<polygon fill="black" stroke="black" points="403.96,-2029.71 413.96,-2026.21 403.96,-2022.71 403.96,-2029.71"/>
<text text-anchor="middle" x="389.83" y="-2030.01" font-family="Times New Roman,serif" font-size="14.00">1</text>
</g>
<!-- 48 -->
<g id="node49" class="node">
<title>48</title>
<ellipse fill="none" stroke="black" cx="350.33" cy="-1926.21" rx="18" ry="18"/>
</g>
<!-- 48&#45;&gt;13 -->
<g id="edge53" class="edge">
<title>48&#45;&gt;13</title>
<path fill="none" stroke="black" d="M366.95,-1933.74C378.14,-1939.13 393.51,-1946.53 406.75,-1952.91"/>
<polygon fill="black" stroke="black" points="405.39,-1956.14 415.92,-1957.33 408.43,-1949.83 405.39,-1956.14"/>
<text text-anchor="middle" x="389.83" y="-1950.01" font-family="Times New Roman,serif" font-size="14.00">0</text>
</g>
<!-- 48&#45;&gt;14 -->
<g id="edge54" class="edge">
<title>48&#45;&gt;14</title>
<path fill="none" stroke="black" d="M368.13,-1922.17C378.65,-1919.63 392.49,-1916.3 404.8,-1913.34"/>
<polygon fill="black" stroke="black" points="405.77,-1916.7 414.67,-1910.96 404.13,-1909.9 405.77,-1916.7"/>
<text text-anchor="middle" x="389.83" y="-1921.01" font-family="Times New Roman,serif" font-size="14.00">1</text>
</g>
<!-- 49 -->
<g id="node50" class="node">
<title>49</title>
<ellipse fill="none" stroke="black" cx="350.33" cy="-1786.21" rx="18" ry="18"/>
</g>
<!-- 49&#45;&gt;15 -->
<g id="edge51" class="edge">
<title>49&#45;&gt;15</title>
<path fill="none" stroke="black" d="M365.41,-1796.39C377.37,-1805.03 394.82,-1817.64 409.17,-1828.01"/>
<polygon fill="black" stroke="black" points="407.48,-1831.1 417.63,-1834.12 411.58,-1825.43 407.48,-1831.1"/>
<text text-anchor="middle" x="389.83" y="-1820.01" font-family="Times New Roman,serif" font-size="14.00">0</text>
</g>
<!-- 49&#45;&gt;16 -->
<g id="edge52" class="edge">
<title>49&#45;&gt;16</title>
<path fill="none" stroke="black" d="M368.53,-1786.21C378.75,-1786.21 391.99,-1786.21 403.92,-1786.21"/>
<polygon fill="black" stroke="black" points="403.96,-1789.71 413.96,-1786.21 403.96,-1782.71 403.96,-1789.71"/>
<text text-anchor="middle" x="389.83" y="-1790.01" font-family="Times New Roman,serif" font-size="14.00">1</text>
</g>
<!-- 50 -->
<g id="node51" class="node">
<title>50</title>
<ellipse fill="none" stroke="black" cx="350.33" cy="-1726.21" rx="18" ry="18"/>
</g>
<!-- 50&#45;&gt;17 -->
<g id="edge49" class="edge">
<title>50&#45;&gt;17</title>
<path fill="none" stroke="black" d="M368.53,-1726.21C378.75,-1726.21 391.99,-1726.21 403.92,-1726.21"/>
<polygon fill="black" stroke="black" points="403.96,-1729.71 413.96,-1726.21 403.96,-1722.71 403.96,-1729.71"/>
<text text-anchor="middle" x="389.83" y="-1730.01" font-family="Times New Roman,serif" font-size="14.00">0</text>
</g>
<!-- 50&#45;&gt;18 -->
<g id="edge50" class="edge">
<title>50&#45;&gt;18</title>
<path fill="none" stroke="black" d="M365.04,-1715.81C376.59,-1707.05 393.46,-1694.25 407.66,-1683.47"/>
<polygon fill="black" stroke="black" points="409.81,-1686.24 415.66,-1677.41 405.58,-1680.66 409.81,-1686.24"/>
<text text-anchor="middle" x="389.83" y="-1702.01" font-family="Times New Roman,serif" font-size="14.00">1</text>
</g>
<!-- 51 -->
<g id="node52" class="node">
<title>51</title>
<ellipse fill="none" stroke="black" cx="350.33" cy="-1540.21" rx="18" ry="18"/>
</g>
<!-- 51&#45;&gt;19 -->
<g id="edge47" class="edge">
<title>51&#45;&gt;19</title>
<path fill="none" stroke="black" d="M365.41,-1550.39C377.37,-1559.03 394.82,-1571.64 409.17,-1582.01"/>
<polygon fill="black" stroke="black" points="407.48,-1585.1 417.63,-1588.12 411.58,-1579.43 407.48,-1585.1"/>
<text text-anchor="middle" x="389.83" y="-1574.01" font-family="Times New Roman,serif" font-size="14.00">0</text>
</g>
<!-- 51&#45;&gt;20 -->
<g id="edge48" class="edge">
<title>51&#45;&gt;20</title>
<path fill="none" stroke="black" d="M368.53,-1540.21C378.75,-1540.21 391.99,-1540.21 403.92,-1540.21"/>
<polygon fill="black" stroke="black" points="403.96,-1543.71 413.96,-1540.21 403.96,-1536.71 403.96,-1543.71"/>
<text text-anchor="middle" x="389.83" y="-1544.01" font-family="Times New Roman,serif" font-size="14.00">1</text>
</g>
<!-- 52 -->
<g id="node53" class="node">
<title>52</title>
<ellipse fill="none" stroke="black" cx="350.33" cy="-1466.21" rx="18" ry="18"/>
</g>
<!-- 52&#45;&gt;21 -->
<g id="edge45" class="edge">
<title>52&#45;&gt;21</title>
<path fill="none" stroke="black" d="M368.13,-1469.05C378.47,-1470.79 392.02,-1473.07 404.17,-1475.12"/>
<polygon fill="black" stroke="black" points="403.93,-1478.63 414.37,-1476.84 405.09,-1471.73 403.93,-1478.63"/>
<text text-anchor="middle" x="389.83" y="-1477.01" font-family="Times New Roman,serif" font-size="14.00">0</text>
</g>
<!-- 52&#45;&gt;22 -->
<g id="edge46" class="edge">
<title>52&#45;&gt;22</title>
<path fill="none" stroke="black" d="M366.56,-1457.78C377.97,-1451.45 393.89,-1442.64 407.43,-1435.14"/>
<polygon fill="black" stroke="black" points="409.29,-1438.11 416.34,-1430.2 405.9,-1431.98 409.29,-1438.11"/>
<text text-anchor="middle" x="389.83" y="-1449.01" font-family="Times New Roman,serif" font-size="14.00">1</text>
</g>
<!-- 53 -->
<g id="node54" class="node">
<title>53</title>
<ellipse fill="none" stroke="black" cx="350.33" cy="-1304.21" rx="18" ry="18"/>
</g>
<!-- 53&#45;&gt;23 -->
<g id="edge43" class="edge">
<title>53&#45;&gt;23</title>
<path fill="none" stroke="black" d="M365.79,-1313.97C377.64,-1321.96 394.71,-1333.47 408.85,-1343"/>
<polygon fill="black" stroke="black" points="406.95,-1345.95 417.2,-1348.64 410.86,-1340.14 406.95,-1345.95"/>
<text text-anchor="middle" x="389.83" y="-1336.01" font-family="Times New Roman,serif" font-size="14.00">0</text>
</g>
<!-- 53&#45;&gt;24 -->
<g id="edge44" class="edge">
<title>53&#45;&gt;24</title>
<path fill="none" stroke="black" d="M368.53,-1302.76C378.13,-1301.95 390.42,-1300.92 401.76,-1299.96"/>
<polygon fill="black" stroke="black" points="402.15,-1303.44 411.82,-1299.11 401.56,-1296.47 402.15,-1303.44"/>
<text text-anchor="middle" x="389.83" y="-1304.01" font-family="Times New Roman,serif" font-size="14.00">1</text>
</g>
<!-- 54 -->
<g id="node55" class="node">
<title>54</title>
<ellipse fill="none" stroke="black" cx="350.33" cy="-1234.21" rx="18" ry="18"/>
</g>
<!-- 54&#45;&gt;26 -->
<g id="edge41" class="edge">
<title>54&#45;&gt;26</title>
<path fill="none" stroke="black" d="M368.53,-1234.21C378.75,-1234.21 391.99,-1234.21 403.92,-1234.21"/>
<polygon fill="black" stroke="black" points="403.96,-1237.71 413.96,-1234.21 403.96,-1230.71 403.96,-1237.71"/>
<text text-anchor="middle" x="389.83" y="-1238.01" font-family="Times New Roman,serif" font-size="14.00">0</text>
</g>
<!-- 54&#45;&gt;27 -->
<g id="edge42" class="edge">
<title>54&#45;&gt;27</title>
<path fill="none" stroke="black" d="M365.41,-1224.04C377.37,-1215.4 394.82,-1202.79 409.17,-1192.42"/>
<polygon fill="black" stroke="black" points="411.58,-1195 417.63,-1186.31 407.48,-1189.33 411.58,-1195"/>
<text text-anchor="middle" x="389.83" y="-1212.01" font-family="Times New Roman,serif" font-size="14.00">1</text>
</g>
<!-- 55 -->
<g id="node56" class="node">
<title>55</title>
<ellipse fill="none" stroke="black" cx="435.37" cy="-631.21" rx="18" ry="18"/>
</g>
<!-- 55&#45;&gt;28 -->
<g id="edge39" class="edge">
<title>55&#45;&gt;28</title>
<path fill="none" stroke="black" d="M450.61,-641.62C463.33,-650.91 482.25,-664.73 497.51,-675.87"/>
<polygon fill="black" stroke="black" points="495.86,-679 505.99,-682.07 499.98,-673.34 495.86,-679"/>
<text text-anchor="middle" x="480.91" y="-669.01" font-family="Times New Roman,serif" font-size="14.00">0</text>
</g>
<!-- 55&#45;&gt;32 -->
<g id="edge40" class="edge">
<title>55&#45;&gt;32</title>
<path fill="none" stroke="black" d="M453.41,-631.81C464.38,-632.19 478.96,-632.69 491.9,-633.14"/>
<polygon fill="black" stroke="black" points="492.16,-636.66 502.28,-633.51 492.41,-629.66 492.16,-636.66"/>
<text text-anchor="middle" x="480.91" y="-637.01" font-family="Times New Roman,serif" font-size="14.00">1</text>
</g>
<!-- 56 -->
<g id="node57" class="node">
<title>56</title>
<ellipse fill="none" stroke="black" cx="435.37" cy="-574.21" rx="18" ry="18"/>
</g>
<!-- 56&#45;&gt;33 -->
<g id="edge37" class="edge">
<title>56&#45;&gt;33</title>
<path fill="none" stroke="black" d="M453.41,-574.21C464.38,-574.21 478.96,-574.21 491.9,-574.21"/>
<polygon fill="black" stroke="black" points="492.28,-577.71 502.28,-574.21 492.28,-570.71 492.28,-577.71"/>
<text text-anchor="middle" x="480.91" y="-578.01" font-family="Times New Roman,serif" font-size="14.00">0</text>
</g>
<!-- 56&#45;&gt;38 -->
<g id="edge38" class="edge">
<title>56&#45;&gt;38</title>
<path fill="none" stroke="black" d="M451,-564.54C464.34,-555.73 484.26,-542.56 499.71,-532.35"/>
<polygon fill="black" stroke="black" points="501.79,-535.17 508.21,-526.74 497.93,-529.33 501.79,-535.17"/>
<text text-anchor="middle" x="480.91" y="-550.01" font-family="Times New Roman,serif" font-size="14.00">1</text>
</g>
<!-- 57 -->
<g id="node58" class="node">
<title>57</title>
<ellipse fill="none" stroke="black" cx="435.37" cy="-354.21" rx="18" ry="18"/>
</g>
<!-- 57&#45;&gt;39 -->
<g id="edge35" class="edge">
<title>57&#45;&gt;39</title>
<path fill="none" stroke="black" d="M452.59,-360.04C465,-364.5 482.36,-370.74 496.69,-375.89"/>
<polygon fill="black" stroke="black" points="495.88,-379.32 506.47,-379.41 498.24,-372.73 495.88,-379.32"/>
<text text-anchor="middle" x="480.91" y="-375.01" font-family="Times New Roman,serif" font-size="14.00">0</text>
</g>
<!-- 57&#45;&gt;40 -->
<g id="edge36" class="edge">
<title>57&#45;&gt;40</title>
<path fill="none" stroke="black" d="M452.59,-348.38C465,-343.92 482.36,-337.68 496.69,-332.53"/>
<polygon fill="black" stroke="black" points="498.24,-335.69 506.47,-329.02 495.88,-329.11 498.24,-335.69"/>
<text text-anchor="middle" x="480.91" y="-343.01" font-family="Times New Roman,serif" font-size="14.00">1</text>
</g>
<!-- 58 -->
<g id="node59" class="node">
<title>58</title>
<ellipse fill="none" stroke="black" cx="435.37" cy="-171.21" rx="18" ry="18"/>
</g>
<!-- 58&#45;&gt;41 -->
<g id="edge33" class="edge">
<title>58&#45;&gt;41</title>
<path fill="none" stroke="black" d="M453.41,-171.21C465.34,-171.21 481.54,-171.21 495.27,-171.21"/>
<polygon fill="black" stroke="black" points="495.62,-174.71 505.62,-171.21 495.62,-167.71 495.62,-174.71"/>
<text text-anchor="middle" x="480.91" y="-175.01" font-family="Times New Roman,serif" font-size="14.00">0</text>
</g>
<!-- 58&#45;&gt;42 -->
<g id="edge34" class="edge">
<title>58&#45;&gt;42</title>
<path fill="none" stroke="black" d="M448.36,-158.7C462.57,-143.87 486.44,-118.97 503.27,-101.4"/>
<polygon fill="black" stroke="black" points="506.06,-103.55 510.45,-93.91 501.01,-98.71 506.06,-103.55"/>
<text text-anchor="middle" x="480.91" y="-130.01" font-family="Times New Roman,serif" font-size="14.00">1</text>
</g>
<!-- 59 -->
<g id="node60" class="node">
<title>59</title>
<ellipse fill="none" stroke="black" cx="263.16" cy="-974.21" rx="18" ry="18"/>
</g>
<!-- 59&#45;&gt;43 -->
<g id="edge31" class="edge">
<title>59&#45;&gt;43</title>
<path fill="none" stroke="black" d="M277.1,-986.36C290.93,-999.36 313.06,-1020.15 329.18,-1035.29"/>
<polygon fill="black" stroke="black" points="326.86,-1037.91 336.55,-1042.21 331.66,-1032.81 326.86,-1037.91"/>
<text text-anchor="middle" x="310.83" y="-1023.01" font-family="Times New Roman,serif" font-size="14.00">0</text>
</g>
<!-- 59&#45;&gt;44 -->
<g id="edge32" class="edge">
<title>59&#45;&gt;44</title>
<path fill="none" stroke="black" d="M281.4,-974.21C293.06,-974.21 308.7,-974.21 322.04,-974.21"/>
<polygon fill="black" stroke="black" points="322.12,-977.71 332.12,-974.21 322.12,-970.71 322.12,-977.71"/>
<text text-anchor="middle" x="310.83" y="-978.01" font-family="Times New Roman,serif" font-size="14.00">1</text>
</g>
<!-- 60 -->
<g id="node61" class="node">
<title>60</title>
<ellipse fill="none" stroke="black" cx="263.16" cy="-850.21" rx="18" ry="18"/>
</g>
<!-- 60&#45;&gt;45 -->
<g id="edge29" class="edge">
<title>60&#45;&gt;45</title>
<path fill="none" stroke="black" d="M281.4,-850.21C293.06,-850.21 308.7,-850.21 322.04,-850.21"/>
<polygon fill="black" stroke="black" points="322.12,-853.71 332.12,-850.21 322.12,-846.71 322.12,-853.71"/>
<text text-anchor="middle" x="310.83" y="-854.01" font-family="Times New Roman,serif" font-size="14.00">0</text>
</g>
<!-- 60&#45;&gt;46 -->
<g id="edge30" class="edge">
<title>60&#45;&gt;46</title>
<path fill="none" stroke="black" d="M275.3,-836.88C289.64,-819.7 314.75,-789.63 331.7,-769.33"/>
<polygon fill="black" stroke="black" points="334.47,-771.47 338.19,-761.55 329.09,-766.98 334.47,-771.47"/>
<text text-anchor="middle" x="310.83" y="-800.01" font-family="Times New Roman,serif" font-size="14.00">1</text>
</g>
<!-- 61 -->
<g id="node62" class="node">
<title>61</title>
<ellipse fill="none" stroke="black" cx="263.16" cy="-1926.21" rx="18" ry="18"/>
</g>
<!-- 61&#45;&gt;47 -->
<g id="edge27" class="edge">
<title>61&#45;&gt;47</title>
<path fill="none" stroke="black" d="M275.65,-1939.7C289.95,-1956.49 314.54,-1985.37 331.35,-2005.1"/>
<polygon fill="black" stroke="black" points="328.87,-2007.6 338.02,-2012.94 334.2,-2003.06 328.87,-2007.6"/>
<text text-anchor="middle" x="310.83" y="-1985.01" font-family="Times New Roman,serif" font-size="14.00">0</text>
</g>
<!-- 61&#45;&gt;48 -->
<g id="edge28" class="edge">
<title>61&#45;&gt;48</title>
<path fill="none" stroke="black" d="M281.4,-1926.21C293.06,-1926.21 308.7,-1926.21 322.04,-1926.21"/>
<polygon fill="black" stroke="black" points="322.12,-1929.71 332.12,-1926.21 322.12,-1922.71 322.12,-1929.71"/>
<text text-anchor="middle" x="310.83" y="-1930.01" font-family="Times New Roman,serif" font-size="14.00">1</text>
</g>
<!-- 62 -->
<g id="node63" class="node">
<title>62</title>
<ellipse fill="none" stroke="black" cx="263.16" cy="-1755.21" rx="18" ry="18"/>
</g>
<!-- 62&#45;&gt;49 -->
<g id="edge25" class="edge">
<title>62&#45;&gt;49</title>
<path fill="none" stroke="black" d="M280.58,-1761.19C292.8,-1765.64 309.7,-1771.79 323.68,-1776.88"/>
<polygon fill="black" stroke="black" points="322.65,-1780.23 333.24,-1780.36 325.05,-1773.65 322.65,-1780.23"/>
<text text-anchor="middle" x="310.83" y="-1776.01" font-family="Times New Roman,serif" font-size="14.00">0</text>
</g>
<!-- 62&#45;&gt;50 -->
<g id="edge26" class="edge">
<title>62&#45;&gt;50</title>
<path fill="none" stroke="black" d="M280.02,-1748.54C288.12,-1745.24 298.17,-1741.32 307.33,-1738.21 312.19,-1736.57 317.41,-1734.95 322.47,-1733.47"/>
<polygon fill="black" stroke="black" points="323.79,-1736.73 332.45,-1730.63 321.88,-1730 323.79,-1736.73"/>
<text text-anchor="middle" x="310.83" y="-1742.01" font-family="Times New Roman,serif" font-size="14.00">1</text>
</g>
<!-- 63 -->
<g id="node64" class="node">
<title>63</title>
<ellipse fill="none" stroke="black" cx="263.16" cy="-1466.21" rx="18" ry="18"/>
</g>
<!-- 63&#45;&gt;51 -->
<g id="edge23" class="edge">
<title>63&#45;&gt;51</title>
<path fill="none" stroke="black" d="M277.47,-1477.78C291.09,-1489.61 312.47,-1508.19 328.37,-1522"/>
<polygon fill="black" stroke="black" points="326.27,-1524.81 336.11,-1528.73 330.86,-1519.53 326.27,-1524.81"/>
<text text-anchor="middle" x="310.83" y="-1511.01" font-family="Times New Roman,serif" font-size="14.00">0</text>
</g>
<!-- 63&#45;&gt;52 -->
<g id="edge24" class="edge">
<title>63&#45;&gt;52</title>
<path fill="none" stroke="black" d="M281.4,-1466.21C293.06,-1466.21 308.7,-1466.21 322.04,-1466.21"/>
<polygon fill="black" stroke="black" points="322.12,-1469.71 332.12,-1466.21 322.12,-1462.71 322.12,-1469.71"/>
<text text-anchor="middle" x="310.83" y="-1470.01" font-family="Times New Roman,serif" font-size="14.00">1</text>
</g>
<!-- 64 -->
<g id="node65" class="node">
<title>64</title>
<ellipse fill="none" stroke="black" cx="263.16" cy="-1304.21" rx="18" ry="18"/>
</g>
<!-- 64&#45;&gt;53 -->
<g id="edge21" class="edge">
<title>64&#45;&gt;53</title>
<path fill="none" stroke="black" d="M281.4,-1304.21C293.06,-1304.21 308.7,-1304.21 322.04,-1304.21"/>
<polygon fill="black" stroke="black" points="322.12,-1307.71 332.12,-1304.21 322.12,-1300.71 322.12,-1307.71"/>
<text text-anchor="middle" x="310.83" y="-1308.01" font-family="Times New Roman,serif" font-size="14.00">0</text>
</g>
<!-- 64&#45;&gt;54 -->
<g id="edge22" class="edge">
<title>64&#45;&gt;54</title>
<path fill="none" stroke="black" d="M277.47,-1293.28C291.01,-1282.14 312.22,-1264.71 328.09,-1251.67"/>
<polygon fill="black" stroke="black" points="330.33,-1254.36 335.83,-1245.3 325.88,-1248.95 330.33,-1254.36"/>
<text text-anchor="middle" x="310.83" y="-1270.01" font-family="Times New Roman,serif" font-size="14.00">1</text>
</g>
<!-- 65 -->
<g id="node66" class="node">
<title>65</title>
<ellipse fill="none" stroke="black" cx="350.33" cy="-599.21" rx="18" ry="18"/>
</g>
<!-- 65&#45;&gt;55 -->
<g id="edge19" class="edge">
<title>65&#45;&gt;55</title>
<path fill="none" stroke="black" d="M367.34,-605.38C379.06,-609.9 395.2,-616.12 408.71,-621.32"/>
<polygon fill="black" stroke="black" points="407.82,-624.73 418.41,-625.06 410.33,-618.2 407.82,-624.73"/>
<text text-anchor="middle" x="389.83" y="-619.01" font-family="Times New Roman,serif" font-size="14.00">0</text>
</g>
<!-- 65&#45;&gt;56 -->
<g id="edge20" class="edge">
<title>65&#45;&gt;56</title>
<path fill="none" stroke="black" d="M367.73,-594.27C379.22,-590.82 394.82,-586.12 408.03,-582.14"/>
<polygon fill="black" stroke="black" points="409.43,-585.38 418,-579.14 407.41,-578.67 409.43,-585.38"/>
<text text-anchor="middle" x="389.83" y="-592.01" font-family="Times New Roman,serif" font-size="14.00">1</text>
</g>
<!-- 66 -->
<g id="node67" class="node">
<title>66</title>
<ellipse fill="none" stroke="black" cx="350.33" cy="-354.21" rx="18" ry="18"/>
</g>
<!-- 66&#45;&gt;57 -->
<g id="edge17" class="edge">
<title>66&#45;&gt;57</title>
<path fill="none" stroke="black" d="M368.53,-354.21C379.67,-354.21 394.4,-354.21 407.11,-354.21"/>
<polygon fill="black" stroke="black" points="407.18,-357.71 417.18,-354.21 407.18,-350.71 407.18,-357.71"/>
<text text-anchor="middle" x="389.83" y="-358.01" font-family="Times New Roman,serif" font-size="14.00">0</text>
</g>
<!-- 66&#45;&gt;58 -->
<g id="edge18" class="edge">
<title>66&#45;&gt;58</title>
<path fill="none" stroke="black" d="M358.7,-337.97C373.16,-306.09 405.37,-235.11 422.74,-196.84"/>
<polygon fill="black" stroke="black" points="426.07,-197.97 427.01,-187.42 419.7,-195.08 426.07,-197.97"/>
<text text-anchor="middle" x="389.83" y="-278.01" font-family="Times New Roman,serif" font-size="14.00">1</text>
</g>
<!-- 67 -->
<g id="node68" class="node">
<title>67</title>
<ellipse fill="none" stroke="black" cx="176" cy="-911.21" rx="18" ry="18"/>
</g>
<!-- 67&#45;&gt;59 -->
<g id="edge15" class="edge">
<title>67&#45;&gt;59</title>
<path fill="none" stroke="black" d="M191.06,-921.62C204.25,-931.37 224.2,-946.13 239.61,-957.53"/>
<polygon fill="black" stroke="black" points="237.96,-960.66 248.08,-963.79 242.12,-955.03 237.96,-960.66"/>
<text text-anchor="middle" x="215.5" y="-945.01" font-family="Times New Roman,serif" font-size="14.00">0</text>
</g>
<!-- 67&#45;&gt;60 -->
<g id="edge16" class="edge">
<title>67&#45;&gt;60</title>
<path fill="none" stroke="black" d="M191.06,-901.14C204.25,-891.69 224.2,-877.4 239.61,-866.36"/>
<polygon fill="black" stroke="black" points="241.99,-868.97 248.08,-860.3 237.91,-863.28 241.99,-868.97"/>
<text text-anchor="middle" x="215.5" y="-889.01" font-family="Times New Roman,serif" font-size="14.00">1</text>
</g>
<!-- 68 -->
<g id="node69" class="node">
<title>68</title>
<ellipse fill="none" stroke="black" cx="176" cy="-1755.21" rx="18" ry="18"/>
</g>
<!-- 68&#45;&gt;61 -->
<g id="edge13" class="edge">
<title>68&#45;&gt;61</title>
<path fill="none" stroke="black" d="M184.86,-1770.99C199.69,-1800.77 231.9,-1865.46 249.71,-1901.21"/>
<polygon fill="black" stroke="black" points="246.73,-1903.08 254.32,-1910.47 253,-1899.96 246.73,-1903.08"/>
<text text-anchor="middle" x="215.5" y="-1839.01" font-family="Times New Roman,serif" font-size="14.00">0</text>
</g>
<!-- 68&#45;&gt;62 -->
<g id="edge14" class="edge">
<title>68&#45;&gt;62</title>
<path fill="none" stroke="black" d="M194.23,-1755.21C205.89,-1755.21 221.54,-1755.21 234.87,-1755.21"/>
<polygon fill="black" stroke="black" points="234.95,-1758.71 244.95,-1755.21 234.95,-1751.71 234.95,-1758.71"/>
<text text-anchor="middle" x="215.5" y="-1759.01" font-family="Times New Roman,serif" font-size="14.00">1</text>
</g>
<!-- 69 -->
<g id="node70" class="node">
<title>69</title>
<ellipse fill="none" stroke="black" cx="176" cy="-1387.21" rx="18" ry="18"/>
</g>
<!-- 69&#45;&gt;63 -->
<g id="edge11" class="edge">
<title>69&#45;&gt;63</title>
<path fill="none" stroke="black" d="M189.93,-1399.21C203.77,-1412.05 225.9,-1432.57 242.02,-1447.53"/>
<polygon fill="black" stroke="black" points="239.67,-1450.13 249.39,-1454.36 244.43,-1444.99 239.67,-1450.13"/>
<text text-anchor="middle" x="215.5" y="-1428.01" font-family="Times New Roman,serif" font-size="14.00">0</text>
</g>
<!-- 69&#45;&gt;64 -->
<g id="edge12" class="edge">
<title>69&#45;&gt;64</title>
<path fill="none" stroke="black" d="M189.57,-1374.97C203.4,-1361.48 225.84,-1339.61 242.12,-1323.75"/>
<polygon fill="black" stroke="black" points="244.83,-1326 249.55,-1316.51 239.94,-1320.98 244.83,-1326"/>
<text text-anchor="middle" x="215.5" y="-1354.01" font-family="Times New Roman,serif" font-size="14.00">1</text>
</g>
<!-- 70 -->
<g id="node71" class="node">
<title>70</title>
<ellipse fill="none" stroke="black" cx="263.16" cy="-599.21" rx="18" ry="18"/>
</g>
<!-- 70&#45;&gt;65 -->
<g id="edge9" class="edge">
<title>70&#45;&gt;65</title>
<path fill="none" stroke="black" d="M281.4,-599.21C293.06,-599.21 308.7,-599.21 322.04,-599.21"/>
<polygon fill="black" stroke="black" points="322.12,-602.71 332.12,-599.21 322.12,-595.71 322.12,-602.71"/>
<text text-anchor="middle" x="310.83" y="-603.01" font-family="Times New Roman,serif" font-size="14.00">0</text>
</g>
<!-- 70&#45;&gt;66 -->
<g id="edge10" class="edge">
<title>70&#45;&gt;66</title>
<path fill="none" stroke="black" d="M270.02,-582.37C284.57,-540.5 322.49,-431.41 340.1,-380.77"/>
<polygon fill="black" stroke="black" points="343.45,-381.77 343.43,-371.17 336.84,-379.47 343.45,-381.77"/>
<text text-anchor="middle" x="310.83" y="-474.01" font-family="Times New Roman,serif" font-size="14.00">1</text>
</g>
<!-- 71 -->
<g id="node72" class="node">
<title>71</title>
<ellipse fill="none" stroke="black" cx="176" cy="-717.21" rx="18" ry="18"/>
</g>
<!-- 71&#45;&gt;1 -->
<g id="edge8" class="edge">
<title>71&#45;&gt;1</title>
<path fill="none" stroke="black" d="M194.23,-717.21C203.61,-717.21 215.57,-717.21 226.83,-717.21"/>
<polygon fill="black" stroke="black" points="226.88,-720.71 236.88,-717.21 226.88,-713.71 226.88,-720.71"/>
<text text-anchor="middle" x="215.5" y="-721.01" font-family="Times New Roman,serif" font-size="14.00">1</text>
</g>
<!-- 71&#45;&gt;70 -->
<g id="edge7" class="edge">
<title>71&#45;&gt;70</title>
<path fill="none" stroke="black" d="M187.44,-702.74C202.08,-682.46 228.83,-645.4 246.03,-621.56"/>
<polygon fill="black" stroke="black" points="248.89,-623.59 251.9,-613.43 243.21,-619.49 248.89,-623.59"/>
<text text-anchor="middle" x="215.5" y="-670.01" font-family="Times New Roman,serif" font-size="14.00">0</text>
</g>
<!-- 72 -->
<g id="node73" class="node">
<title>72</title>
<ellipse fill="none" stroke="black" cx="97" cy="-1387.21" rx="18" ry="18"/>
</g>
<!-- 72&#45;&gt;68 -->
<g id="edge5" class="edge">
<title>72&#45;&gt;68</title>
<path fill="none" stroke="black" d="M101.71,-1404.96C114.12,-1464.23 154.16,-1655.61 169.21,-1727.54"/>
<polygon fill="black" stroke="black" points="165.85,-1728.57 171.32,-1737.64 172.7,-1727.14 165.85,-1728.57"/>
<text text-anchor="middle" x="136.5" y="-1586.01" font-family="Times New Roman,serif" font-size="14.00">0</text>
</g>
<!-- 72&#45;&gt;69 -->
<g id="edge6" class="edge">
<title>72&#45;&gt;69</title>
<path fill="none" stroke="black" d="M115.09,-1387.21C124.66,-1387.21 136.82,-1387.21 147.68,-1387.21"/>
<polygon fill="black" stroke="black" points="147.96,-1390.71 157.96,-1387.21 147.96,-1383.71 147.96,-1390.71"/>
<text text-anchor="middle" x="136.5" y="-1391.01" font-family="Times New Roman,serif" font-size="14.00">1</text>
</g>
<!-- 73 -->
<g id="node74" class="node">
<title>73</title>
<ellipse fill="none" stroke="black" cx="97" cy="-911.21" rx="18" ry="18"/>
</g>
<!-- 73&#45;&gt;67 -->
<g id="edge4" class="edge">
<title>73&#45;&gt;67</title>
<path fill="none" stroke="black" d="M115.09,-911.21C124.66,-911.21 136.82,-911.21 147.68,-911.21"/>
<polygon fill="black" stroke="black" points="147.96,-914.71 157.96,-911.21 147.96,-907.71 147.96,-914.71"/>
<text text-anchor="middle" x="136.5" y="-915.01" font-family="Times New Roman,serif" font-size="14.00">1</text>
</g>
<!-- 73&#45;&gt;71 -->
<g id="edge3" class="edge">
<title>73&#45;&gt;71</title>
<path fill="none" stroke="black" d="M104.56,-894.67C117.98,-860.88 148.6,-783.72 164.69,-743.18"/>
<polygon fill="black" stroke="black" points="168.02,-744.3 168.45,-733.71 161.51,-741.72 168.02,-744.3"/>
<text text-anchor="middle" x="136.5" y="-824.01" font-family="Times New Roman,serif" font-size="14.00">0</text>
</g>
<!-- 74 -->
<g id="node75" class="node">
<title>74</title>
<ellipse fill="none" stroke="black" cx="18" cy="-1124.21" rx="18" ry="18"/>
</g>
<!-- 74&#45;&gt;72 -->
<g id="edge1" class="edge">
<title>74&#45;&gt;72</title>
<path fill="none" stroke="black" d="M24.05,-1141.47C37.13,-1186.15 72.18,-1305.87 88.03,-1359.99"/>
<polygon fill="black" stroke="black" points="84.76,-1361.28 90.93,-1369.89 91.48,-1359.31 84.76,-1361.28"/>
<text text-anchor="middle" x="57.5" y="-1267.01" font-family="Times New Roman,serif" font-size="14.00">0</text>
</g>
<!-- 74&#45;&gt;73 -->
<g id="edge2" class="edge">
<title>74&#45;&gt;73</title>
<path fill="none" stroke="black" d="M25.04,-1107.5C38.4,-1070.56 70.5,-981.74 86.55,-937.36"/>
<polygon fill="black" stroke="black" points="89.88,-938.44 89.99,-927.85 83.29,-936.06 89.88,-938.44"/>
<text text-anchor="middle" x="57.5" y="-1028.01" font-family="Times New Roman,serif" font-size="14.00">1</text>
</g>
</g>
</svg>
